inDegrees=yes
name=ik_S46_A08_T01
DataType=double
version=3
OpenSimVersion=4.3-2021-08-27-4bc7ad9
endheader
time	pelvis_tilt	pelvis_list	pelvis_rotation	pelvis_tx	pelvis_ty	pelvis_tz	hip_flexion_r	hip_adduction_r	hip_rotation_r	knee_angle_r	knee_angle_r_beta	ankle_angle_r	subtalar_angle_r	mtp_angle_r	hip_flexion_l	hip_adduction_l	hip_rotation_l	knee_angle_l	knee_angle_l_beta	ankle_angle_l	subtalar_angle_l	mtp_angle_l	lumbar_extension	lumbar_bending	lumbar_rotation	arm_flex_r	arm_add_r	arm_rot_r	elbow_flex_r	pro_sup_r	wrist_flex_r	wrist_dev_r	arm_flex_l	arm_add_l	arm_rot_l	elbow_flex_l	pro_sup_l	wrist_flex_l	wrist_dev_l
6.45999999999995	-10.81687113777709	-1.977118430515819	26.3566608682181	0	0.9399999999999999	0	33.48996298603709	-10.82533019534696	-9.567283418562976	43.01559710345306	0.7507637991665917	0	0	0	33.48996298603709	-10.82533019534696	-9.567283418562976	43.01559710345306	0.7507637991665917	0	0	0	-8.909884384884656	-1.34459829245635	3.790530491937378	15.31265129566199	-7.638078003639589	7.238195954285761	63.05477422442303	136.3078884371305	0	0	67.06357346766529	-0.9684623254085007	8.879602150059066	81.87935964190625	83.85352454607995	0	0
6.47999999999995	-10.79984985541568	-1.938726464790927	26.28587346651755	0	0.9399999999999999	0	33.49662210206363	-10.82371944308958	-9.567827183619572	43.02034143156533	0.7508466033129459	0	0	0	33.49662210206363	-10.82371944308958	-9.567827183619572	43.02034143156533	0.7508466033129459	0	0	0	-8.878347631937192	-1.316299550750521	3.779565177185885	15.30545077798275	-7.691267040011979	7.319063177229338	62.99983976847125	136.2828422104347	0	0	66.97434268688961	-1.025294493152031	8.76257478195785	83.75940034716989	84.90859158068658	0	0
6.499999999999949	-10.78733374922884	-1.923686026264312	26.19288905359199	0	0.9399999999999999	0	33.58989357549685	-10.80828718463239	-9.573875307999364	43.10718718468848	0.752362347646319	0	0	0	33.58989357549685	-10.80828718463239	-9.573875307999364	43.10718718468848	0.752362347646319	0	0	0	-8.86947250882135	-1.289997086594715	3.789544336326617	15.43019890294179	-7.697057448973079	7.333089615081251	62.94882259363719	136.2747347775545	0	0	69.19596785790003	-1.121044388831802	9.391075346941053	83.48496819305754	84.98801174531607	0	0
6.519999999999949	-10.76108171350952	-1.894505044178066	26.07127313044179	0	0.9399999999999999	0	33.59471821269737	-10.80712293084636	-9.574269220912146	43.11059673269762	0.7524218554850833	0	0	0	33.59471821269737	-10.80712293084636	-9.574269220912146	43.11059673269762	0.7524218554850833	0	0	0	-8.833522314635632	-1.275588929746884	3.79303208221191	15.48195564336168	-7.718261208691404	7.373732741839866	62.87135473873594	136.2896238522859	0	0	70.19679014970629	-1.251572901351785	9.665675352521339	82.40179151665286	84.45577074155723	0	0
6.539999999999949	-10.75958276717445	-1.874155910006343	25.99436301292151	0	0.9399999999999999	0	33.59940172742174	-10.80599391467377	-9.574651405298319	43.11390762193967	0.752479641403526	0	0	0	33.59940172742174	-10.80599391467377	-9.574651405298319	43.11390762193967	0.752479641403526	0	0	0	-8.822315478111173	-1.2656211564472	3.824106960730867	15.4553041271093	-7.74499900262945	7.425883026476034	62.90139962254399	136.2872962195675	0	0	72.19113595948184	-1.140261493906327	9.969984106764182	82.2235583153787	84.78367201454935	0	0
6.559999999999948	-10.74348693552621	-1.845504946371399	25.90974379149907	0	0.9399999999999999	0	33.60312496938398	-10.80509868964071	-9.57495476872182	43.11654421824749	0.7525256586901432	0	0	0	33.60312496938398	-10.80509868964071	-9.57495476872182	43.11654421824749	0.7525256586901432	0	0	0	-8.795628860991082	-1.245154833811127	3.807081540868148	15.50659215181019	-7.757686583322976	7.482812322862616	62.85152548120904	136.3081654069755	0	0	73.19832899056053	-0.8262321742903844	9.425812574035465	82.67963207218649	85.6460852369337	0	0
6.579999999999948	-10.71960830509428	-1.812268550947662	25.83280636769838	0	0.9399999999999999	0	33.60900893952535	-10.80368243849949	-9.575434599997022	43.12070292763928	0.7525982418616636	0	0	0	33.60900893952535	-10.80368243849949	-9.575434599997022	43.12070292763928	0.7525982418616636	0	0	0	-8.760893057033874	-1.224712207012228	3.803240668954543	15.61357463593996	-7.741853276612104	7.537262453481504	62.68010291919191	136.315508358658	0	0	74.00501959521651	-0.8623761817831884	9.499497075825223	84.98888398389253	86.91945637069004	0	0
6.599999999999947	-10.71481261522184	-1.797485368489228	25.79482167834647	0	0.9399999999999999	0	33.61175535633449	-10.80302555821847	-9.575657677530771	43.12265470149621	0.7526323067417213	0	0	0	33.61175535633449	-10.80302555821847	-9.575657677530771	43.12265470149621	0.7526323067417213	0	0	0	-8.750851935603951	-1.209451611590501	3.775183615086732	15.6846453416857	-7.753127507514986	7.621738659436689	62.66466239280029	136.3117558354718	0	0	74.88486195592014	-0.9068668159744887	9.462563061276741	85.60943327287552	87.32280807353614	0	0
6.619999999999947	-10.69641715282171	-1.772422184708613	25.74242535910111	0	0.9399999999999999	0	33.61544964534837	-10.80213989399671	-9.575958233158239	43.12527286272865	0.7526780022755756	0	0	0	33.61544964534837	-10.80213989399671	-9.575958233158239	43.12527286272865	0.7526780022755756	0	0	0	-8.72393535771965	-1.192320442552219	3.756579811713463	15.63756489426912	-7.77632967985318	7.688213618147056	62.65531492258452	136.3076319492051	0	0	75.73813909172985	-0.9174917848144255	9.419020341991624	86.22129617290591	87.76897213901285	0	0
6.639999999999946	-10.68433592667392	-1.758876290087219	25.7197452506538	0	0.9399999999999999	0	33.61917113619964	-10.80124803109271	-9.576260970874538	43.12790948131305	0.7527240199509927	0	0	0	33.61917113619964	-10.80124803109271	-9.576260970874538	43.12790948131305	0.7527240199509927	0	0	0	-8.706881438837607	-1.18785668541824	3.76884637258989	15.66072720154025	-7.799528803396679	7.74059293732184	62.61457323762207	136.2723090522684	0	0	76.58007484326497	-0.8201177624332303	9.49710781446225	86.77554249583775	88.07066892675856	0	0
6.659999999999946	-10.68297605338841	-1.755356675362711	25.68791049858808	0	0.9399999999999999	0	33.62262007086296	-10.80043830188507	-9.576537860618338	43.1303997123179	0.7527674826811623	0	0	0	33.62262007086296	-10.80043830188507	-9.576537860618338	43.1303997123179	0.7527674826811623	0	0	0	-8.7048253527194	-1.181088331166	3.741409292806157	15.74700182851454	-7.832168438664604	7.8665658495647	62.57439553025531	136.2141661229938	0	0	76.57520412464123	-0.8591869203382019	9.440262695589341	88.17141710329668	88.59269266717401	0	0
6.679999999999946	-10.65081993357083	-1.731749618215248	25.65917567202266	0	0.9399999999999999	0	33.62652556944399	-10.79950450899254	-9.576855169457048	43.13316937680408	0.7528158224456218	0	0	0	33.62652556944399	-10.79950450899254	-9.576855169457048	43.13316937680408	0.7528158224456218	0	0	0	-8.665634345761051	-1.175113109265019	3.748407544940031	15.73203236265398	-7.843223316525349	7.974214914757061	62.50708677574931	136.1722100077494	0	0	77.30450143199158	-0.7851141588812333	9.606115606325028	87.42681849025763	88.35128825589432	0	0
